<?xml version="1.0" encoding="UTF-8" ?>
<!DOCTYPE svg PUBLIC "-//W3C//DTD SVG 1.1//EN" "http://www.w3.org/Graphics/SVG/1.1/DTD/svg11.dtd">
<svg width="617pt" height="795pt" viewBox="0 0 617 795" version="1.1" xmlns="http://www.w3.org/2000/svg">
<path fill="#ffffff" d=" M 0.00 0.00 L 617.00 0.00 L 617.00 318.10 C 612.24 307.05 608.88 295.48 605.00 284.11 C 602.30 275.72 599.32 267.42 596.80 258.98 C 591.52 237.42 585.49 216.05 579.21 194.76 C 573.35 173.13 563.59 152.86 556.04 131.82 C 549.12 118.82 539.75 107.10 528.91 97.15 C 525.84 94.51 522.91 91.59 519.25 89.78 C 495.48 78.94 471.36 68.63 449.01 55.00 C 432.48 46.82 415.94 38.66 399.30 30.70 C 392.45 26.94 385.27 23.43 379.87 17.64 C 377.34 16.90 375.02 18.90 372.71 19.65 C 342.18 32.88 307.65 35.80 275.10 29.41 C 260.94 26.70 247.07 22.53 233.68 17.20 C 232.17 16.73 230.34 15.67 228.92 16.92 C 222.05 21.66 215.67 27.09 208.81 31.85 C 170.15 54.07 130.60 74.85 89.62 92.46 C 72.39 99.97 59.65 115.01 51.27 131.48 C 43.64 145.96 39.27 161.81 34.56 177.39 C 27.87 203.39 26.86 230.37 23.95 256.93 C 16.88 284.64 9.74 312.39 0.00 339.30 L 0.00 0.00 Z" />
<path fill="#333333" d=" M 228.92 16.92 C 230.34 15.67 232.17 16.73 233.68 17.20 C 247.07 22.53 260.94 26.70 275.10 29.41 C 307.65 35.80 342.18 32.88 372.71 19.65 C 375.02 18.90 377.34 16.90 379.87 17.64 C 385.27 23.43 392.45 26.94 399.30 30.70 C 415.94 38.66 432.48 46.82 449.01 55.00 C 471.36 68.63 495.48 78.94 519.25 89.78 C 522.91 91.59 525.84 94.51 528.91 97.15 C 539.75 107.10 549.12 118.82 556.04 131.82 C 563.59 152.86 573.35 173.13 579.21 194.76 C 585.49 216.05 591.52 237.42 596.80 258.98 C 599.32 267.42 602.30 275.72 605.00 284.11 C 608.88 295.48 612.24 307.05 617.00 318.10 L 617.00 334.47 C 616.45 332.95 615.84 331.46 615.26 329.97 C 601.36 341.03 586.66 351.36 570.17 358.20 C 550.75 366.58 529.33 367.91 508.50 369.30 C 510.04 372.85 509.63 378.44 514.14 379.74 C 520.02 380.91 526.05 382.15 532.05 381.05 C 550.04 378.53 567.53 373.12 584.47 366.65 C 595.88 362.01 607.46 357.07 617.00 349.10 L 617.00 356.74 C 605.28 365.22 591.64 370.52 578.15 375.44 C 564.45 380.22 550.46 384.33 536.11 386.54 C 529.34 387.74 522.44 387.64 515.72 386.22 C 511.04 385.76 506.11 383.15 504.80 378.32 C 501.91 366.45 496.75 355.25 494.25 343.26 C 494.12 360.19 492.19 377.02 491.95 393.94 C 491.38 421.33 492.35 448.71 493.12 476.08 C 493.87 491.06 492.73 506.05 492.92 521.04 C 493.00 567.46 495.58 614.61 509.57 659.17 C 509.99 660.43 510.18 662.02 509.00 662.96 C 500.01 671.28 489.41 677.95 477.75 681.82 C 449.73 695.35 418.95 701.97 388.22 705.70 C 359.94 709.10 331.43 710.03 302.97 709.97 C 263.69 711.35 223.81 710.43 185.54 700.61 C 159.18 693.77 133.19 681.72 114.69 661.20 C 113.51 660.12 112.96 658.59 113.26 657.02 C 116.09 621.71 118.84 586.40 121.37 551.07 C 122.03 544.07 121.61 537.05 121.55 530.04 C 120.74 490.35 118.41 450.69 118.02 410.99 C 118.35 401.04 119.72 391.15 120.76 381.26 C 119.00 386.49 117.16 393.27 111.17 395.02 C 90.31 398.94 68.35 396.33 48.88 387.91 C 41.26 384.58 33.77 380.83 26.88 376.16 C 17.87 369.06 8.98 361.81 0.00 354.68 L 0.00 339.30 C 9.74 312.39 16.88 284.64 23.95 256.93 C 26.86 230.37 27.87 203.39 34.56 177.39 C 39.27 161.81 43.64 145.96 51.27 131.48 C 59.65 115.01 72.39 99.97 89.62 92.46 C 130.60 74.85 170.15 54.07 208.81 31.85 C 215.67 27.09 222.05 21.66 228.92 16.92 Z" />
<path fill="#ffffff" d=" M 230.41 22.84 C 234.23 23.51 237.69 25.40 241.38 26.52 C 271.59 37.14 304.37 41.79 336.15 36.51 C 350.47 34.18 364.47 29.95 377.72 24.07 C 378.43 24.72 379.15 25.37 379.87 26.02 C 379.43 30.47 381.41 37.04 376.33 39.38 C 365.61 46.20 353.24 49.89 340.87 52.36 C 321.79 55.97 302.17 56.68 282.86 54.80 C 269.88 53.38 256.72 51.04 244.94 45.19 C 238.26 41.89 231.43 35.98 231.89 27.81 C 231.48 27.56 230.67 27.05 230.26 26.79 C 230.31 25.47 230.36 24.15 230.41 22.84 Z" />
<path fill="#ffffff" d=" M 213.36 36.13 C 217.99 32.57 222.69 29.11 227.28 25.49 C 226.50 38.67 233.48 51.24 243.64 59.27 C 259.24 71.75 279.36 77.05 298.95 78.78 C 320.69 80.29 343.83 77.57 362.53 65.60 C 375.10 57.71 383.80 43.34 382.97 28.27 C 386.93 30.75 390.98 33.09 395.11 35.28 C 395.52 46.88 392.48 58.91 385.06 68.01 C 377.21 77.80 365.67 83.80 353.94 87.64 C 332.68 94.47 310.14 95.54 287.99 95.90 C 285.83 95.35 286.14 99.19 288.01 98.76 C 309.53 98.79 331.34 97.42 352.10 91.35 C 366.59 87.02 381.07 79.58 389.72 66.73 C 395.69 58.02 398.17 47.35 398.21 36.89 C 413.10 43.88 427.75 51.38 442.59 58.48 C 446.80 60.45 450.65 63.09 454.72 65.32 C 473.59 76.06 493.56 84.68 513.27 93.72 C 515.24 94.67 517.36 95.22 519.44 95.90 C 518.14 97.13 516.19 96.87 514.58 97.30 C 516.06 111.12 520.60 124.93 518.19 138.92 C 515.21 160.27 511.52 181.54 509.60 203.03 C 508.11 217.75 508.69 232.76 504.73 247.15 C 498.73 271.62 483.21 293.02 463.42 308.31 C 462.07 309.47 460.34 310.36 459.53 312.01 C 459.06 313.99 461.64 315.58 463.15 314.22 C 468.69 310.06 474.09 305.63 478.83 300.56 L 478.88 299.40 C 479.43 300.01 479.98 300.62 480.53 301.25 C 479.68 344.38 474.18 387.53 462.32 429.07 C 460.10 437.44 457.15 445.60 454.81 453.92 C 454.98 456.24 458.54 456.19 458.75 453.92 C 474.47 407.61 482.82 358.90 484.14 310.04 C 483.99 306.54 484.94 302.87 483.75 299.50 C 482.51 299.25 481.35 298.79 480.33 298.07 C 484.09 296.45 486.15 292.30 488.87 289.33 C 488.45 305.89 488.38 322.45 488.11 339.02 C 487.90 348.28 488.12 357.57 487.19 366.80 C 486.33 376.67 486.31 386.59 485.63 396.46 C 480.85 417.89 473.82 438.76 468.66 460.11 C 464.63 475.61 463.18 491.64 459.25 507.17 C 454.83 526.08 447.93 544.33 439.61 561.85 C 432.18 577.70 423.60 593.00 416.58 609.03 C 415.75 611.24 419.52 612.39 420.19 610.19 C 427.36 594.78 435.38 579.79 442.71 564.46 C 451.50 546.14 458.72 527.00 463.30 507.17 C 467.16 491.55 468.64 475.44 472.76 459.88 C 476.64 443.77 481.89 428.02 485.64 411.89 C 485.90 436.92 486.63 461.94 487.39 486.96 C 486.15 536.29 486.45 586.17 496.77 634.64 C 492.64 638.73 487.78 641.97 482.74 644.82 C 484.60 638.04 489.13 632.11 489.73 624.97 C 490.00 622.58 488.63 619.61 485.95 619.45 C 481.48 619.19 477.93 622.34 474.10 624.11 C 471.00 624.41 467.34 624.99 464.64 623.08 C 464.79 617.27 470.44 613.73 473.12 608.99 C 478.06 599.66 483.16 590.39 487.85 580.93 C 489.20 578.64 485.10 576.76 484.16 579.20 C 479.08 588.48 474.37 597.98 469.21 607.23 C 465.97 611.92 461.02 616.00 460.32 622.00 C 459.93 625.78 463.73 628.31 467.13 628.44 C 470.77 628.63 474.92 629.19 478.04 626.85 C 480.37 625.32 482.90 624.09 485.65 623.51 C 485.32 628.63 482.86 633.20 480.79 637.78 C 479.38 640.87 478.77 644.26 477.39 647.36 C 462.75 654.77 446.71 659.01 430.82 662.83 C 386.66 672.74 341.24 675.99 296.07 675.85 C 270.94 675.64 245.80 674.11 220.91 670.58 C 199.95 667.55 179.09 663.17 159.16 655.89 C 157.34 655.17 155.08 654.72 154.41 652.61 C 141.17 625.22 133.73 595.49 127.59 565.83 C 125.94 558.94 127.78 551.91 127.78 544.96 C 127.75 525.17 126.81 505.40 126.34 485.63 C 127.29 491.39 129.10 497.05 128.88 502.96 C 129.62 521.54 127.81 540.67 133.54 558.66 C 136.45 567.77 141.72 575.93 147.73 583.29 C 150.25 586.08 153.08 589.38 157.07 589.76 C 160.10 589.71 161.71 586.60 162.09 583.97 C 163.18 577.32 161.97 570.58 160.92 564.00 C 152.29 513.20 141.30 462.82 132.91 411.98 C 131.09 400.01 128.83 388.07 127.74 376.02 C 128.70 362.32 131.09 348.73 131.88 335.01 C 132.05 333.43 130.36 332.74 129.44 331.79 C 129.22 324.65 127.76 317.62 125.50 310.87 C 124.50 304.61 125.77 298.14 124.26 291.93 C 124.19 290.73 125.77 292.14 126.36 292.15 L 124.42 292.07 C 132.82 303.45 142.86 313.57 154.07 322.19 C 156.44 322.98 157.90 319.47 155.74 318.31 C 146.57 310.51 137.35 302.52 130.36 292.61 C 125.15 285.43 121.15 277.44 118.10 269.13 C 113.19 255.75 107.10 242.76 103.48 228.93 C 101.13 220.13 101.18 210.97 100.62 201.94 C 98.59 167.42 95.45 132.93 90.33 98.72 C 131.63 81.06 171.50 60.21 210.43 37.86 C 212.25 52.09 219.77 65.18 230.35 74.72 C 237.40 81.09 245.36 86.54 253.98 90.53 C 254.33 90.14 255.04 89.37 255.40 88.98 C 253.74 86.21 249.91 85.58 247.40 83.62 C 230.12 73.59 215.08 56.80 213.36 36.13 Z" />
<path fill="#ffffff" d=" M 232.01 38.66 C 237.05 44.97 244.43 48.79 251.91 51.46 C 262.84 55.29 274.37 57.13 285.89 58.11 C 304.25 59.58 322.84 58.83 340.95 55.39 C 353.91 52.87 366.77 48.90 378.07 41.92 C 373.33 55.59 360.89 64.88 347.73 69.72 C 326.98 77.38 304.01 77.79 282.50 73.33 C 267.41 69.98 252.18 64.10 241.16 52.88 C 237.13 48.85 234.21 43.88 232.01 38.66 Z" />
<path fill="#ffffff" d=" M 523.15 124.07 C 522.39 114.96 519.76 106.08 519.59 96.91 C 531.89 107.29 542.56 119.71 550.32 133.84 C 556.46 150.42 563.44 166.69 569.47 183.32 C 571.23 188.02 570.34 193.10 570.32 197.99 C 568.65 240.25 563.39 282.87 549.20 322.90 C 547.64 325.82 552.73 327.87 553.61 324.69 C 567.96 285.47 572.71 243.56 575.25 202.13 C 580.75 222.19 586.55 242.19 591.47 262.41 C 598.03 281.49 603.55 300.97 611.13 319.69 C 599.72 329.88 586.86 338.52 572.92 344.84 C 551.26 353.13 528.23 359.11 504.87 358.20 C 499.59 344.06 497.42 329.00 496.68 314.00 C 497.66 311.42 499.42 309.26 500.89 306.95 C 512.10 290.63 524.35 274.89 533.19 257.08 C 541.03 241.57 546.43 224.50 546.49 206.99 C 546.63 191.62 542.74 176.42 536.59 162.40 C 536.09 160.74 533.58 160.42 532.72 161.91 C 531.67 163.15 532.81 164.65 533.17 165.93 C 538.62 178.89 542.11 192.85 541.89 206.98 C 541.78 222.79 537.15 238.26 530.39 252.45 C 521.25 271.71 508.03 288.58 495.93 306.02 C 495.84 304.19 495.81 302.32 496.68 300.66 C 502.67 287.12 508.17 273.31 515.47 260.40 C 519.23 253.51 524.16 247.18 526.47 239.58 C 531.47 223.89 530.40 207.15 529.79 190.94 C 529.58 182.56 532.89 174.37 531.75 165.98 C 531.07 163.33 526.73 164.26 527.16 166.95 C 527.49 176.40 523.98 185.59 525.11 195.08 C 525.67 212.69 526.82 231.83 517.49 247.59 C 508.53 261.64 501.42 276.78 495.27 292.24 C 495.11 290.09 494.95 287.95 494.82 285.81 C 494.19 285.15 493.57 284.50 492.96 283.84 C 505.17 266.34 511.78 245.25 512.74 223.99 C 513.68 200.19 517.14 176.61 520.72 153.10 C 521.93 143.47 524.32 133.82 523.15 124.07 Z" />
<path fill="#ffffff" d=" M 68.32 116.35 C 73.40 110.17 79.53 104.89 86.40 100.79 C 91.86 138.32 95.12 176.14 97.03 214.01 C 97.82 233.80 107.26 251.66 113.86 269.93 C 115.87 275.89 118.87 281.42 121.51 287.09 C 122.12 292.07 121.81 297.15 122.00 302.17 C 112.48 281.46 97.31 263.98 87.51 243.43 C 85.41 238.76 83.24 234.01 82.59 228.88 C 79.13 206.63 74.99 184.48 69.74 162.58 C 68.47 162.87 67.20 163.16 65.93 163.45 C 71.14 185.45 75.34 207.68 78.79 230.03 C 79.29 234.02 80.81 237.77 82.33 241.47 C 93.11 266.65 113.13 286.88 122.03 312.97 C 124.58 319.91 125.15 327.29 125.86 334.58 C 125.18 336.66 124.44 338.74 123.78 340.83 C 121.13 331.63 117.69 322.52 112.66 314.34 C 111.37 312.20 108.17 314.64 109.53 316.50 C 114.58 325.48 118.37 335.17 120.92 345.15 C 121.68 347.38 120.84 349.65 120.29 351.83 C 118.95 356.57 118.41 361.49 117.42 366.31 C 94.29 366.93 71.52 361.06 50.09 352.76 C 35.75 346.14 22.63 337.05 10.79 326.62 C 18.15 304.02 24.02 280.97 29.95 257.97 C 32.71 232.22 33.80 206.11 39.91 180.85 C 46.42 158.28 53.08 134.79 68.32 116.35 Z" />
<path fill="#030303" d=" M 211.74 151.71 C 230.45 142.99 251.68 140.55 272.10 142.35 C 283.57 143.64 295.46 146.16 304.92 153.12 C 308.92 156.18 312.40 160.69 312.31 165.96 C 312.25 171.75 308.42 176.64 304.17 180.19 C 297.38 185.75 289.17 189.40 280.76 191.74 C 296.51 191.87 312.26 191.00 328.01 190.78 C 330.16 190.66 332.26 191.18 334.23 192.01 C 339.18 189.73 344.74 190.21 350.04 190.10 C 352.95 190.01 355.56 191.46 357.62 193.40 C 361.39 190.37 366.21 189.16 370.98 189.28 C 379.49 189.27 388.02 188.06 396.51 188.93 C 397.93 188.38 399.45 188.13 400.98 188.13 C 425.88 187.17 450.75 185.92 475.63 184.60 C 467.81 201.83 461.38 219.77 458.08 238.45 C 463.26 241.73 468.58 245.90 470.41 252.02 C 472.13 257.62 469.30 263.42 465.40 267.36 C 458.63 274.21 449.72 278.39 440.88 281.89 C 418.25 290.38 394.08 293.97 370.05 295.55 C 344.67 296.98 319.02 296.11 294.04 291.10 C 281.00 288.34 267.79 284.74 256.43 277.51 C 249.89 273.41 243.43 266.34 245.42 257.97 C 240.90 258.73 236.38 259.43 231.86 260.16 C 231.30 267.15 233.87 274.21 238.59 279.36 C 245.95 287.53 256.22 292.28 266.38 295.97 C 297.09 306.28 329.94 307.97 362.09 307.05 C 382.31 305.76 402.73 303.72 422.09 297.38 C 427.76 295.55 433.21 293.07 438.36 290.07 C 437.13 293.05 434.44 295.06 431.85 296.80 C 424.82 301.10 416.84 303.48 408.91 305.51 C 392.67 309.43 375.98 311.32 359.31 312.05 C 341.19 313.37 322.98 312.37 304.92 310.69 C 289.06 308.88 273.19 306.12 258.14 300.66 C 247.69 296.79 237.26 291.63 229.78 283.13 C 224.58 277.37 221.76 269.54 222.23 261.77 C 218.72 262.39 215.19 262.98 211.69 263.65 C 211.08 275.13 216.89 286.16 225.78 293.18 C 240.31 304.77 259.17 309.56 277.44 310.54 C 258.23 311.72 238.10 307.89 221.93 297.05 C 211.29 289.97 203.27 278.28 202.80 265.25 C 199.03 265.89 195.28 266.60 191.52 267.29 C 191.23 279.06 198.16 289.87 207.22 296.88 C 210.31 299.57 214.18 301.11 217.37 303.65 C 205.94 300.47 195.01 293.32 189.52 282.53 C 186.78 277.30 185.72 271.35 186.09 265.48 C 175.25 268.80 163.94 270.25 152.93 272.90 C 147.31 273.79 141.39 276.56 135.79 274.25 C 131.48 272.40 130.41 267.01 131.91 262.94 C 138.05 245.04 143.84 227.02 150.11 209.16 C 154.53 196.56 158.96 183.95 163.02 171.23 C 172.92 171.15 182.83 171.17 192.74 171.06 C 194.79 161.57 203.58 155.73 211.74 151.71 Z" />
<path fill="#c01b19" d=" M 238.47 145.89 C 252.26 143.33 266.39 144.81 280.15 146.88 L 279.28 147.39 C 271.82 146.94 264.40 145.73 256.92 145.71 C 254.46 145.60 252.16 146.55 249.92 147.42 C 245.26 147.90 240.50 147.47 235.82 147.37 C 236.47 146.52 237.38 145.97 238.47 145.89 Z" />
<path fill="#ff0401" d=" M 249.92 147.42 C 252.16 146.55 254.46 145.60 256.92 145.71 C 264.40 145.73 271.82 146.94 279.28 147.39 C 284.08 147.58 288.69 149.10 293.17 150.69 C 298.81 152.96 304.77 156.10 307.27 162.00 C 309.13 168.07 305.78 174.32 301.03 178.02 C 292.62 184.89 281.92 187.96 271.58 190.60 C 265.91 192.37 259.88 192.35 254.00 192.19 C 255.82 191.78 257.61 191.26 259.37 190.62 C 247.41 189.61 235.29 191.36 223.44 188.89 C 239.65 186.26 256.32 186.66 272.31 182.44 C 282.07 180.01 292.81 176.38 298.54 167.50 C 300.78 164.67 298.44 160.90 296.07 158.99 C 289.85 153.77 281.67 151.91 273.94 150.14 C 266.02 148.57 257.96 147.94 249.92 147.42 Z" />
<path fill="#ffffff" d=" M 224.54 155.36 C 239.23 151.93 254.59 151.11 269.54 153.24 C 275.80 154.31 282.33 155.65 287.57 159.45 C 289.98 161.11 291.78 164.38 290.22 167.21 C 287.62 172.02 282.11 174.01 277.44 176.22 C 277.59 175.49 277.90 174.03 278.05 173.30 C 276.20 173.75 274.36 173.09 272.55 172.80 C 273.97 167.35 275.35 161.90 276.66 156.43 C 274.49 156.45 272.33 156.48 270.18 156.53 C 268.86 161.78 267.66 167.06 266.19 172.26 C 265.66 172.38 264.60 172.61 264.07 172.72 C 264.41 167.17 266.39 161.91 267.59 156.51 C 265.42 156.52 263.26 156.52 261.09 156.53 C 259.46 163.19 257.58 169.80 256.23 176.52 C 261.00 176.82 265.82 177.04 270.58 176.46 C 272.31 176.24 271.95 174.02 272.54 172.84 C 272.99 173.61 273.88 175.14 274.33 175.90 C 275.00 175.87 276.34 175.80 277.01 175.76 C 275.78 177.12 273.76 177.24 272.12 177.85 C 255.65 182.30 238.20 183.16 221.36 180.44 C 222.32 177.22 223.27 174.00 224.24 170.78 C 217.08 170.84 209.91 170.94 202.75 171.00 C 202.35 168.46 203.19 165.88 205.15 164.20 C 210.49 159.30 217.69 157.19 224.54 155.36 Z" />
<path fill="#333333" d=" M 61.26 154.23 C 62.80 153.78 64.13 155.55 63.00 156.88 C 54.58 175.12 56.50 196.27 62.37 214.97 C 70.11 241.79 83.49 266.48 97.60 290.41 C 99.17 293.26 101.15 295.90 102.38 298.93 C 101.97 300.75 99.64 300.56 99.16 298.94 C 83.61 272.90 68.40 246.22 59.81 216.95 C 54.32 199.68 51.89 180.67 57.39 163.08 C 58.47 160.06 59.29 156.81 61.26 154.23 Z" />
<path fill="#fe0402" d=" M 261.09 156.53 C 263.26 156.52 265.42 156.52 267.59 156.51 C 266.39 161.91 264.41 167.17 264.07 172.72 C 264.60 172.61 265.66 172.38 266.19 172.26 C 267.66 167.06 268.86 161.78 270.18 156.53 C 272.33 156.48 274.49 156.45 276.66 156.43 C 275.35 161.90 273.97 167.35 272.55 172.80 L 272.54 172.84 C 271.95 174.02 272.31 176.24 270.58 176.46 C 265.82 177.04 261.00 176.82 256.23 176.52 C 257.58 169.80 259.46 163.19 261.09 156.53 Z" />
<path fill="#fe0403" d=" M 228.89 156.78 C 233.80 157.14 239.06 155.63 243.68 157.75 C 243.39 161.20 242.85 165.93 238.74 166.80 C 239.72 167.36 240.65 168.00 241.55 168.69 C 240.27 171.48 240.84 176.19 236.98 176.84 C 232.69 177.57 228.28 177.03 223.94 177.24 C 225.31 170.36 227.33 163.62 228.89 156.78 Z" />
<path fill="#ff0402" d=" M 243.83 166.98 C 244.79 163.41 244.59 158.03 248.83 156.73 C 252.16 156.44 255.51 156.62 258.86 156.58 C 258.45 158.16 257.98 159.72 257.40 161.25 C 255.42 161.16 253.43 161.15 251.45 161.22 C 251.36 161.92 251.18 163.34 251.09 164.05 C 252.79 164.42 256.71 163.12 256.37 165.99 C 255.54 169.37 255.60 173.55 253.13 176.19 C 249.37 177.50 245.18 176.75 241.26 176.87 C 241.63 175.37 242.00 173.87 242.39 172.37 C 244.39 172.38 246.40 172.37 248.41 172.36 C 248.65 171.36 248.89 170.37 249.13 169.39 C 247.31 169.20 243.34 169.94 243.83 166.98 Z" />
<path fill="#feffff" d=" M 234.44 161.06 C 234.99 161.16 236.09 161.34 236.64 161.43 C 236.47 162.38 236.31 163.33 236.15 164.28 C 235.26 164.42 234.38 164.56 233.49 164.70 C 233.80 163.49 234.12 162.27 234.44 161.06 Z" />
<path fill="#feffff" d=" M 232.45 169.05 C 233.02 169.15 234.15 169.34 234.72 169.44 C 234.45 170.54 234.18 171.64 233.90 172.74 C 233.29 172.73 232.07 172.72 231.45 172.71 C 231.78 171.49 232.11 170.27 232.45 169.05 Z" />
<path fill="#ffffff" d=" M 167.15 176.88 C 173.99 176.84 180.83 176.81 187.67 176.79 C 181.50 195.95 174.41 214.79 168.15 233.93 C 166.91 237.98 165.07 241.92 164.81 246.21 C 166.74 246.62 168.97 247.07 170.66 245.71 C 173.74 243.32 174.64 239.31 175.86 235.82 C 182.20 215.98 189.57 196.50 196.06 176.71 C 202.91 176.64 209.78 176.58 216.64 176.52 C 209.68 197.44 201.92 218.08 195.32 239.11 C 193.38 244.54 192.14 250.27 189.50 255.42 C 186.96 259.88 181.65 261.22 176.97 262.09 C 165.61 264.36 154.30 266.85 142.96 269.22 C 141.03 269.50 138.30 270.10 137.09 268.06 C 136.74 266.37 137.30 264.70 137.81 263.12 C 141.05 253.88 144.05 244.56 147.19 235.29 C 153.64 215.75 160.82 196.46 167.15 176.88 Z" />
<path fill="#ffffff" d=" M 442.88 192.10 C 450.83 191.35 458.82 191.21 466.79 190.74 C 465.50 193.82 464.23 196.92 463.02 200.03 C 457.84 200.26 452.67 200.56 447.49 200.73 C 446.55 203.12 445.68 205.54 444.84 207.97 C 450.00 207.77 455.16 207.52 460.33 207.32 C 459.36 210.48 458.35 213.64 457.45 216.83 C 452.34 217.19 447.22 217.11 442.12 217.50 C 440.97 219.47 440.77 221.90 440.08 224.07 C 445.21 223.94 450.34 223.75 455.48 223.59 C 454.73 226.69 454.03 229.80 453.43 232.93 C 446.31 233.24 439.18 233.39 432.06 233.57 C 429.50 233.55 426.44 233.38 424.73 231.19 C 423.04 229.09 423.95 226.25 424.51 223.90 C 426.81 215.62 429.13 207.30 432.54 199.40 C 434.28 195.25 438.45 192.49 442.88 192.10 Z" />
<path fill="#ffffff" d=" M 401.50 193.76 C 412.01 193.38 422.52 192.87 433.02 192.41 C 431.80 195.47 430.56 198.53 429.35 201.60 C 426.65 201.75 423.96 201.88 421.27 202.01 C 417.32 212.62 414.04 223.48 411.60 234.54 C 406.29 234.86 400.99 235.16 395.69 235.46 C 398.31 224.36 401.59 213.44 405.55 202.75 C 402.96 202.87 400.37 202.99 397.78 203.09 C 398.98 199.96 400.17 196.84 401.50 193.76 Z" />
<path fill="#ffffff" d=" M 359.49 200.45 C 361.02 196.78 365.21 195.11 368.96 195.04 C 376.65 194.77 384.35 194.43 392.04 194.20 C 394.09 194.08 396.81 194.61 397.42 196.92 C 396.89 200.44 395.20 203.65 394.09 207.01 C 390.48 216.51 387.81 226.34 385.36 236.19 C 380.02 236.63 374.67 237.04 369.33 237.45 C 370.16 234.33 371.01 231.22 371.84 228.10 C 369.73 228.26 367.63 228.41 365.53 228.57 C 364.66 231.71 363.82 234.85 362.96 238.00 C 357.59 238.51 352.23 239.01 346.87 239.49 C 350.38 226.26 354.38 213.15 359.49 200.45 Z" />
<path fill="#ffffff" d=" M 332.20 202.01 C 334.06 199.36 336.45 196.57 339.88 196.14 C 343.24 195.80 346.63 195.72 350.01 195.79 C 351.80 195.69 353.83 196.95 353.61 198.97 C 353.36 202.16 351.87 205.07 350.87 208.07 C 346.90 218.53 343.80 229.29 340.89 240.09 C 335.48 240.69 330.08 241.25 324.67 241.82 C 327.27 232.84 329.87 223.85 333.00 215.04 C 333.92 212.34 335.24 209.70 335.26 206.78 C 332.95 206.17 330.01 206.62 329.01 209.08 C 324.83 220.03 321.69 231.33 318.33 242.55 C 312.93 243.17 307.54 243.85 302.14 244.44 C 305.46 233.40 308.73 222.33 312.64 211.48 C 312.96 210.34 313.77 208.13 311.96 207.85 C 309.52 207.19 307.00 208.86 306.32 211.21 C 302.20 222.42 298.90 233.90 295.39 245.31 C 289.91 246.03 284.43 246.75 278.95 247.44 C 282.33 236.68 285.47 225.84 289.29 215.23 C 291.30 209.37 294.08 203.61 294.08 197.27 C 299.37 197.17 304.66 196.99 309.95 196.90 C 309.87 199.34 309.43 201.74 308.63 204.04 C 311.49 200.95 314.25 196.52 319.01 196.63 C 322.65 196.52 326.32 196.27 329.97 196.55 C 332.72 196.87 332.08 200.04 332.20 202.01 Z" />
<path fill="#ffffff" d=" M 240.48 198.41 C 250.93 198.21 261.39 198.01 271.84 197.82 C 270.47 201.72 269.12 205.61 267.74 209.50 C 265.07 209.63 262.40 209.77 259.74 209.89 C 254.47 223.83 250.15 238.09 245.54 252.26 C 240.06 253.12 234.58 254.01 229.10 254.87 C 233.93 240.12 238.63 225.32 243.92 210.73 C 241.32 210.85 238.72 210.98 236.13 211.11 C 237.65 206.90 239.09 202.66 240.48 198.41 Z" />
<path fill="#ffffff" d=" M 274.18 197.77 C 279.42 197.64 284.67 197.53 289.92 197.38 C 283.69 214.16 278.04 231.14 272.85 248.27 C 267.37 249.06 261.88 249.83 256.40 250.61 C 261.85 232.84 267.80 215.23 274.18 197.77 Z" />
<path fill="#ffffff" d=" M 207.85 222.07 C 210.50 214.43 213.80 206.91 214.64 198.79 C 220.80 198.69 226.95 198.63 233.11 198.53 C 231.43 201.20 229.82 203.94 228.74 206.91 C 224.25 219.14 219.89 231.43 216.09 243.89 C 220.08 243.62 223.93 242.46 227.64 241.01 C 225.14 246.11 222.69 251.25 220.16 256.34 C 211.69 257.89 203.21 259.35 194.74 260.94 C 199.24 248.03 203.25 234.95 207.85 222.07 Z" />
<path fill="#030303" d=" M 372.96 205.95 C 374.04 203.68 376.87 203.54 379.01 204.11 C 378.37 209.27 375.79 213.93 374.54 218.95 C 372.42 219.12 370.30 219.27 368.19 219.41 C 369.67 214.89 371.03 210.30 372.96 205.95 Z" />
<path fill="#333333" d=" M 37.22 207.39 C 38.67 206.58 40.40 207.79 40.23 209.40 C 42.41 234.02 46.94 258.55 55.24 281.88 C 63.88 307.20 77.41 330.40 90.41 353.66 C 90.99 355.07 92.68 356.81 91.17 358.23 C 90.00 359.30 88.29 358.47 87.82 357.11 C 76.67 336.98 64.91 317.08 56.26 295.70 C 45.29 269.04 39.13 240.60 36.51 211.94 C 36.58 210.47 35.71 208.40 37.22 207.39 Z" />
<path fill="#ffffff" d=" M 231.13 217.03 C 232.66 216.96 234.20 216.89 235.73 216.82 C 233.20 224.05 230.73 231.30 228.44 238.61 C 227.32 237.37 226.15 236.16 224.63 235.42 C 226.87 229.31 228.81 223.10 231.13 217.03 Z" />
<path fill="#ffffff" d=" M 417.83 235.42 C 416.81 234.66 417.20 232.07 418.74 232.48 C 419.93 233.15 420.41 234.10 420.18 235.34 C 419.59 235.36 418.42 235.40 417.83 235.42 Z" />
<path fill="#ff0c0b" d=" M 417.83 235.42 C 418.42 235.40 419.59 235.36 420.18 235.34 C 422.28 236.07 423.64 238.39 426.00 238.52 C 433.33 239.20 440.70 238.55 448.05 238.67 C 449.09 238.50 449.70 238.96 449.87 240.05 C 443.47 240.40 437.05 240.17 430.65 240.73 C 425.89 240.29 421.07 238.81 416.29 239.54 C 416.45 238.17 416.60 236.81 416.76 235.45 L 417.83 235.42 Z" />
<path fill="#feffff" d=" M 416.29 239.54 C 421.07 238.81 425.89 240.29 430.65 240.73 C 437.43 242.36 445.33 243.29 450.19 248.82 C 452.48 251.04 450.64 254.05 448.44 255.45 C 441.96 259.90 434.17 261.83 426.69 263.89 C 405.84 268.98 384.46 271.88 363.02 272.82 C 356.47 273.29 349.82 273.63 343.31 272.51 C 348.87 272.62 354.41 272.12 359.95 271.64 C 378.63 269.86 397.32 267.58 415.62 263.33 C 422.41 261.62 429.36 259.91 435.46 256.36 C 437.80 255.06 440.16 252.51 439.14 249.63 C 437.97 247.18 435.24 246.10 432.88 245.13 C 427.53 243.24 421.94 242.03 416.31 241.38 C 413.34 241.04 410.30 241.25 407.40 240.43 C 410.38 240.44 413.41 240.46 416.29 239.54 Z" />
<path fill="#ff0302" d=" M 430.65 240.73 C 437.05 240.17 443.47 240.40 449.87 240.05 C 452.35 239.85 454.11 241.94 456.01 243.18 C 459.66 246.17 463.61 249.95 463.85 254.97 C 464.33 259.99 460.94 264.27 457.48 267.48 C 451.55 272.72 444.22 276.02 436.95 278.95 C 424.76 283.58 411.95 286.41 399.18 288.74 C 374.01 292.29 348.39 293.62 322.99 291.58 C 304.92 289.80 286.62 287.31 269.71 280.33 C 262.92 277.35 255.81 273.70 251.74 267.23 C 249.76 264.42 250.19 260.86 250.44 257.64 C 251.86 257.02 253.32 256.52 254.89 256.56 C 254.44 258.36 253.88 260.16 253.73 262.02 C 254.10 266.12 257.34 269.19 260.47 271.51 C 266.75 275.92 274.06 278.57 281.35 280.83 C 300.05 286.36 319.54 288.74 338.97 289.80 C 350.17 289.74 361.62 290.86 372.56 287.80 C 365.73 287.66 358.89 287.68 352.07 287.28 C 337.03 286.17 321.79 285.23 307.26 280.90 C 301.56 279.07 295.58 277.09 291.17 272.85 C 288.37 270.21 287.77 265.44 290.25 262.40 C 293.17 258.72 297.53 256.57 301.79 254.84 C 313.33 250.22 325.70 248.23 337.96 246.64 C 361.56 244.34 385.44 244.74 408.95 247.80 C 413.95 248.29 418.84 249.69 423.90 249.60 C 416.14 247.90 408.35 246.30 400.44 245.48 C 395.07 242.42 388.80 244.06 382.97 243.46 C 382.44 243.06 381.39 242.25 380.86 241.84 C 392.66 241.25 404.49 241.02 416.31 241.38 C 421.94 242.03 427.53 243.24 432.88 245.13 C 435.24 246.10 437.97 247.18 439.14 249.63 C 440.16 252.51 437.80 255.06 435.46 256.36 C 429.36 259.91 422.41 261.62 415.62 263.33 C 397.32 267.58 378.63 269.86 359.95 271.64 C 354.41 272.12 348.87 272.62 343.31 272.51 C 349.82 273.63 356.47 273.29 363.02 272.82 C 384.46 271.88 405.84 268.98 426.69 263.89 C 434.17 261.83 441.96 259.90 448.44 255.45 C 450.64 254.05 452.48 251.04 450.19 248.82 C 445.33 243.29 437.43 242.36 430.65 240.73 Z" />
<path fill="#b81b1b" d=" M 361.71 243.99 C 367.99 243.20 374.26 242.17 380.58 241.62 L 380.86 241.84 C 381.39 242.25 382.44 243.06 382.97 243.46 C 388.80 244.06 395.07 242.42 400.44 245.48 C 387.57 244.34 374.63 243.56 361.71 243.99 Z" />
<path fill="#feffff" d=" M 305.19 250.08 C 323.93 247.35 342.81 245.34 361.71 243.99 C 374.63 243.56 387.57 244.34 400.44 245.48 C 408.35 246.30 416.14 247.90 423.90 249.60 C 418.84 249.69 413.95 248.29 408.95 247.80 C 385.44 244.74 361.56 244.34 337.96 246.64 C 325.70 248.23 313.33 250.22 301.79 254.84 C 297.53 256.57 293.17 258.72 290.25 262.40 C 287.77 265.44 288.37 270.21 291.17 272.85 C 295.58 277.09 301.56 279.07 307.26 280.90 C 321.79 285.23 337.03 286.17 352.07 287.28 C 358.89 287.68 365.73 287.66 372.56 287.80 C 361.62 290.86 350.17 289.74 338.97 289.80 C 319.54 288.74 300.05 286.36 281.35 280.83 C 274.06 278.57 266.75 275.92 260.47 271.51 C 257.34 269.19 254.10 266.12 253.73 262.02 C 253.88 260.16 254.44 258.36 254.89 256.56 C 259.27 256.01 263.61 255.19 268.00 254.77 C 266.25 258.63 266.35 263.54 269.27 266.81 C 273.05 271.38 278.83 273.30 283.95 275.92 C 281.38 274.01 278.62 271.44 278.63 268.00 C 279.27 263.13 283.13 259.51 287.12 257.07 C 292.71 253.78 298.91 251.62 305.19 250.08 Z" />
<path fill="#ff0401" d=" M 268.00 254.77 C 280.20 253.08 292.76 250.99 305.19 250.08 C 298.91 251.62 292.71 253.78 287.12 257.07 C 283.13 259.51 279.27 263.13 278.63 268.00 C 278.62 271.44 281.38 274.01 283.95 275.92 C 278.83 273.30 273.05 271.38 269.27 266.81 C 266.35 263.54 266.25 258.63 268.00 254.77 Z" />
<path fill="#dcffff" d=" M 329.00 287.38 C 332.72 286.98 336.47 287.20 340.18 287.67 C 347.81 288.51 355.55 287.26 363.14 288.54 C 351.79 289.54 340.22 289.58 329.00 287.38 Z" />
<path fill="#ffffff" d=" M 573.81 347.73 C 587.94 341.58 600.60 332.58 612.46 322.85 C 612.98 324.25 613.52 325.66 614.06 327.07 C 600.06 338.20 585.33 348.73 568.69 355.53 C 549.45 363.73 528.26 364.97 507.67 366.33 C 507.06 364.64 506.48 362.96 505.90 361.28 C 529.22 361.93 552.18 356.00 573.81 347.73 Z" />
<path fill="#ffffff" d=" M 9.68 329.77 C 21.72 339.99 34.80 349.17 49.24 355.67 C 70.81 363.98 93.72 369.92 116.99 369.30 C 116.66 370.98 116.33 372.66 116.01 374.35 C 102.62 373.66 89.22 372.55 76.03 370.06 C 57.70 366.58 40.78 357.91 25.53 347.39 C 19.61 343.20 13.96 338.66 8.16 334.30 C 8.67 332.79 9.17 331.28 9.68 329.77 Z" />
<path fill="#ffffff" d=" M 570.17 358.20 C 586.66 351.36 601.36 341.03 615.26 329.97 C 615.84 331.46 616.45 332.95 617.00 334.47 L 617.00 349.10 C 607.46 357.07 595.88 362.01 584.47 366.65 C 567.53 373.12 550.04 378.53 532.05 381.05 C 526.05 382.15 520.02 380.91 514.14 379.74 C 509.63 378.44 510.04 372.85 508.50 369.30 C 529.33 367.91 550.75 366.58 570.17 358.20 Z" />
<path fill="#ffffff" d=" M 2.80 349.13 C 4.31 345.21 5.61 341.21 7.20 337.33 C 25.08 351.72 44.64 364.89 67.02 371.04 C 82.79 375.22 99.16 376.36 115.39 377.36 C 114.07 381.36 113.72 386.52 109.97 389.08 C 82.01 394.63 52.65 386.48 29.44 370.53 C 20.58 363.37 11.62 356.33 2.80 349.13 Z" />
<path fill="#ffffff" d=" M 491.95 393.94 C 492.19 377.02 494.12 360.19 494.25 343.26 C 496.75 355.25 501.91 366.45 504.80 378.32 C 506.11 383.15 511.04 385.76 515.72 386.22 C 522.44 387.64 529.34 387.74 536.11 386.54 C 550.46 384.33 564.45 380.22 578.15 375.44 C 591.64 370.52 605.28 365.22 617.00 356.74 L 617.00 795.00 L 0.00 795.00 L 0.00 354.68 C 8.98 361.81 17.87 369.06 26.88 376.16 C 33.77 380.83 41.26 384.58 48.88 387.91 C 68.35 396.33 90.31 398.94 111.17 395.02 C 117.16 393.27 119.00 386.49 120.76 381.26 C 119.72 391.15 118.35 401.04 118.02 410.99 C 118.41 450.69 120.74 490.35 121.55 530.04 C 121.61 537.05 122.03 544.07 121.37 551.07 C 118.84 586.40 116.09 621.71 113.26 657.02 C 112.96 658.59 113.51 660.12 114.69 661.20 C 133.19 681.72 159.18 693.77 185.54 700.61 C 223.81 710.43 263.69 711.35 302.97 709.97 C 331.43 710.03 359.94 709.10 388.22 705.70 C 418.95 701.97 449.73 695.35 477.75 681.82 C 489.41 677.95 500.01 671.28 509.00 662.96 C 510.18 662.02 509.99 660.43 509.57 659.17 C 495.58 614.61 493.00 567.46 492.92 521.04 C 492.73 506.05 493.87 491.06 493.12 476.08 C 492.35 448.71 491.38 421.33 491.95 393.94 Z" />
<path fill="#ffffff" d=" M 126.19 387.74 C 134.08 443.53 146.38 498.56 156.14 554.02 C 157.49 562.63 159.57 571.21 159.48 579.97 C 159.32 582.23 159.38 584.87 157.71 586.63 C 155.20 587.07 153.43 584.73 151.76 583.25 C 143.55 574.07 136.97 563.06 134.58 550.85 C 131.38 535.45 132.49 519.61 131.93 503.99 C 132.17 495.00 129.26 486.40 127.28 477.75 C 124.88 469.73 125.58 461.29 125.06 453.04 C 124.58 431.28 122.73 409.37 126.19 387.74 Z" />
<path fill="#ffffff" d=" M 125.43 574.62 C 131.16 601.12 138.26 627.55 149.84 652.16 C 139.51 647.47 129.35 641.93 121.15 633.98 C 122.56 614.19 124.59 594.43 125.43 574.62 Z" />
<path fill="#ffffff" d=" M 491.41 642.29 C 493.90 641.60 495.68 639.64 497.60 638.04 C 498.03 639.98 498.49 641.93 498.96 643.87 C 497.27 645.44 495.52 646.94 493.76 648.42 C 494.37 646.96 495.28 645.57 495.47 643.97 C 494.87 642.07 492.77 642.92 491.41 642.29 Z" />
<path fill="#ffffff" d=" M 120.84 637.89 C 129.93 645.84 140.70 651.57 151.77 656.24 C 153.33 659.12 154.84 662.03 156.59 664.81 C 143.63 659.68 130.68 653.58 120.41 643.93 C 120.55 641.92 120.69 639.89 120.84 637.89 Z" />
<path fill="#ffffff" d=" M 483.72 647.65 C 486.40 646.18 489.00 644.57 491.60 642.96 C 490.16 646.29 488.66 649.63 486.75 652.73 C 484.43 654.41 481.73 655.48 479.22 656.85 C 480.61 653.80 480.00 649.06 483.72 647.65 Z" />
<path fill="#ffffff" d=" M 120.07 647.75 C 131.12 657.32 144.58 663.48 158.14 668.60 C 161.48 671.41 163.07 675.92 166.27 678.97 C 167.46 680.32 169.91 678.65 169.34 677.02 C 168.08 674.81 166.41 672.87 164.89 670.84 C 187.60 678.10 211.20 682.17 234.86 684.76 C 277.39 689.28 320.33 689.01 362.92 685.45 C 388.30 683.20 413.62 679.62 438.41 673.64 C 450.37 670.65 462.29 667.27 473.66 662.45 C 473.55 665.20 472.62 668.88 475.29 670.79 C 478.15 672.15 480.84 669.67 482.88 667.95 C 487.49 664.35 488.16 658.02 491.61 653.59 C 494.34 651.45 497.28 649.57 499.85 647.22 C 500.92 651.48 502.16 655.69 503.48 659.88 C 495.93 666.31 487.55 672.01 478.10 675.22 C 473.75 676.68 469.76 679.00 465.51 680.70 C 445.59 689.10 424.42 694.14 403.13 697.54 C 375.98 701.81 348.48 703.41 321.03 703.84 C 312.69 704.02 304.35 703.76 296.02 704.15 C 268.80 704.98 241.45 704.31 214.48 700.31 C 195.21 697.40 176.06 692.75 158.24 684.74 C 143.67 678.19 130.05 669.17 119.30 657.29 C 119.56 654.10 119.82 650.92 120.07 647.75 Z" />
<path fill="#ffffff" d=" M 433.47 665.31 C 448.13 661.81 462.70 657.58 476.43 651.29 C 475.50 653.80 475.28 656.59 474.11 658.99 C 455.72 666.90 436.07 671.44 416.47 675.23 C 371.50 683.47 325.62 685.97 279.97 684.80 C 241.22 683.43 202.13 679.49 165.01 667.73 C 160.56 666.80 159.75 661.51 157.28 658.35 C 178.42 666.32 200.70 670.79 223.01 673.93 C 266.41 679.75 310.41 680.03 354.04 676.94 C 380.74 674.89 407.38 671.41 433.47 665.31 Z" />
<path fill="#ffffff" d=" M 478.36 660.53 C 480.56 659.49 482.74 658.41 484.87 657.24 C 483.24 661.00 481.21 664.66 477.54 666.79 C 477.69 664.68 477.98 662.60 478.36 660.53 Z" />
</svg>
