<?xml version="1.0" encoding="UTF-8" standalone="no"?>
<svg
   xmlns:dc="http://purl.org/dc/elements/1.1/"
   xmlns:cc="http://creativecommons.org/ns#"
   xmlns:rdf="http://www.w3.org/1999/02/22-rdf-syntax-ns#"
   xmlns:svg="http://www.w3.org/2000/svg"
   xmlns="http://www.w3.org/2000/svg"
   xmlns:sodipodi="http://sodipodi.sourceforge.net/DTD/sodipodi-0.dtd"
   xmlns:inkscape="http://www.inkscape.org/namespaces/inkscape"
   id="svg2"
   version="1.1"
   viewBox="0 0 627.73836 311.46799"
   height="389.33499"
   width="784.67297"
   inkscape:version="0.91 r13725"
   sodipodi:docname="Ball State Logo.svg">
  <sodipodi:namedview
     pagecolor="#ffffff"
     bordercolor="#666666"
     borderopacity="1"
     objecttolerance="10"
     gridtolerance="10"
     guidetolerance="10"
     inkscape:pageopacity="0"
     inkscape:pageshadow="2"
     inkscape:window-width="1283"
     inkscape:window-height="700"
     id="namedview31"
     showgrid="false"
     width="784.673pt"
     units="px"
     inkscape:zoom="0.67170697"
     inkscape:cx="613.91504"
     inkscape:cy="143.80841"
     inkscape:window-x="0"
     inkscape:window-y="0"
     inkscape:window-maximized="0"
     inkscape:current-layer="svg2" />
  <metadata
     id="metadata106">
    <rdf:RDF>
      <cc:Work
         rdf:about="">
        <dc:format>image/svg+xml</dc:format>
        <dc:type
           rdf:resource="http://purl.org/dc/dcmitype/StillImage" />
        <dc:title></dc:title>
      </cc:Work>
    </rdf:RDF>
  </metadata>
  <defs
     id="defs104" />
  <g
     id="g3359"
     transform="matrix(1.8229098,0,0,1.8229098,-239.29183,127.9771)">
    <path
       style="fill:#030303"
       inkscape:connector-curvature="0"
       d="m 211.74,-60.29 c 18.71,-8.72 39.94,-11.16 60.36,-9.36 11.47,1.29 23.36,3.81 32.82,10.77 4,3.06 7.48,7.57 7.39,12.84 -0.06,5.79 -3.89,10.68 -8.14,14.23 -6.79,5.56 -15,9.21 -23.41,11.55 15.75,0.13 31.5,-0.74 47.25,-0.96 2.15,-0.12 4.25,0.4 6.22,1.23 4.95,-2.28 10.51,-1.8 15.81,-1.91 2.91,-0.09 5.52,1.36 7.58,3.3 3.77,-3.03 8.59,-4.24 13.36,-4.12 8.51,-0.01 17.04,-1.22 25.53,-0.35 1.42,-0.55 2.94,-0.8 4.47,-0.8 24.9,-0.96 49.77,-2.21 74.65,-3.53 -7.82,17.23 -14.25,35.17 -17.55,53.85 5.18,3.28 10.5,7.45 12.33,13.57 1.72,5.6 -1.11,11.4 -5.01,15.34 -6.77,6.85 -15.68,11.03 -24.52,14.53 -22.63,8.49 -46.8,12.08 -70.83,13.66 -25.38,1.43 -51.03,0.56 -76.01,-4.45 -13.04,-2.76 -26.25,-6.36 -37.61,-13.59 -6.54,-4.1 -13,-11.17 -11.01,-19.54 -4.52,0.76 -9.04,1.46 -13.56,2.19 -0.56,6.99 2.01,14.05 6.73,19.2 7.36,8.17 17.63,12.92 27.79,16.61 30.71,10.31 63.56,12 95.71,11.08 20.22,-1.29 40.64,-3.33 60,-9.67 5.67,-1.83 11.12,-4.31 16.27,-7.31 -1.23,2.98 -3.92,4.99 -6.51,6.73 -7.03,4.3 -15.01,6.68 -22.94,8.71 -16.24,3.92 -32.93,5.81 -49.6,6.54 -18.12,1.32 -36.33,0.32 -54.39,-1.36 -15.86,-1.81 -31.73,-4.57 -46.78,-10.03 -10.45,-3.87 -20.88,-9.03 -28.36,-17.53 -5.2,-5.76 -8.02,-13.59 -7.55,-21.36 -3.51,0.62 -7.04,1.21 -10.54,1.88 -0.61,11.48 5.2,22.51 14.09,29.53 14.53,11.59 33.39,16.38 51.66,17.36 -19.21,1.18 -39.34,-2.65 -55.51,-13.49 -10.64,-7.08 -18.66,-18.77 -19.13,-31.8 -3.77,0.64 -7.52,1.35 -11.28,2.04 -0.29,11.77 6.64,22.58 15.7,29.59 3.09,2.69 6.96,4.23 10.15,6.77 -11.43,-3.18 -22.36,-10.33 -27.85,-21.12 -2.74,-5.23 -3.8,-11.18 -3.43,-17.05 -10.84,3.32 -22.15,4.77 -33.16,7.42 -5.62,0.89 -11.54,3.66 -17.14,1.35 -4.31,-1.85 -5.38,-7.24 -3.88,-11.31 6.14,-17.9 11.93,-35.92 18.2,-53.78 4.42,-12.6 8.85,-25.21 12.91,-37.93 9.9,-0.08 19.81,-0.06 29.72,-0.17 2.05,-9.49 10.84,-15.33 19,-19.35 z"
       id="path18" />
    <path
       style="fill:#c01b19"
       inkscape:connector-curvature="0"
       d="m 238.47,-66.11 c 13.79,-2.56 27.92,-1.08 41.68,0.99 l -0.87,0.51 c -7.46,-0.45 -14.88,-1.66 -22.36,-1.68 -2.46,-0.11 -4.76,0.84 -7,1.71 -4.66,0.48 -9.42,0.05 -14.1,-0.05 0.65,-0.85 1.56,-1.4 2.65,-1.48 z"
       id="path20" />
    <path
       style="fill:#ff0401"
       inkscape:connector-curvature="0"
       d="m 249.92,-64.58 c 2.24,-0.87 4.54,-1.82 7,-1.71 7.48,0.02 14.9,1.23 22.36,1.68 4.8,0.19 9.41,1.71 13.89,3.3 5.64,2.27 11.6,5.41 14.1,11.31 1.86,6.07 -1.49,12.32 -6.24,16.02 -8.41,6.87 -19.11,9.94 -29.45,12.58 -5.67,1.77 -11.7,1.75 -17.58,1.59 1.82,-0.41 3.61,-0.93 5.37,-1.57 -11.96,-1.01 -24.08,0.74 -35.93,-1.73 16.21,-2.63 32.88,-2.23 48.87,-6.45 9.76,-2.43 20.5,-6.06 26.23,-14.94 2.24,-2.83 -0.1,-6.6 -2.47,-8.51 -6.22,-5.22 -14.4,-7.08 -22.13,-8.85 -7.92,-1.57 -15.98,-2.2 -24.02,-2.72 z"
       id="path22" />
    <path
       style="fill:#ffffff"
       inkscape:connector-curvature="0"
       d="m 224.54,-56.64 c 14.69,-3.43 30.05,-4.25 45,-2.12 6.26,1.07 12.79,2.41 18.03,6.21 2.41,1.66 4.21,4.93 2.65,7.76 -2.6,4.81 -8.11,6.8 -12.78,9.01 0.15,-0.73 0.46,-2.19 0.61,-2.92 -1.85,0.45 -3.69,-0.21 -5.5,-0.5 1.42,-5.45 2.8,-10.9 4.11,-16.37 -2.17,0.02 -4.33,0.05 -6.48,0.1 -1.32,5.25 -2.52,10.53 -3.99,15.73 -0.53,0.12 -1.59,0.35 -2.12,0.46 0.34,-5.55 2.32,-10.81 3.52,-16.21 -2.17,0.01 -4.33,0.01 -6.5,0.02 -1.63,6.66 -3.51,13.27 -4.86,19.99 4.77,0.3 9.59,0.52 14.35,-0.06 1.73,-0.22 1.37,-2.44 1.96,-3.62 0.45,0.77 1.34,2.3 1.79,3.06 0.67,-0.03 2.01,-0.1 2.68,-0.14 -1.23,1.36 -3.25,1.48 -4.89,2.09 -16.47,4.45 -33.92,5.31 -50.76,2.59 0.96,-3.22 1.91,-6.44 2.88,-9.66 -7.16,0.06 -14.33,0.16 -21.49,0.22 -0.4,-2.54 0.44,-5.12 2.4,-6.8 5.34,-4.9 12.54,-7.01 19.39,-8.84 z"
       id="path24" />
    <path
       style="fill:#fe0402"
       inkscape:connector-curvature="0"
       d="m 261.09,-55.47 c 2.17,-0.01 4.33,-0.01 6.5,-0.02 -1.2,5.4 -3.18,10.66 -3.52,16.21 0.53,-0.11 1.59,-0.34 2.12,-0.46 1.47,-5.2 2.67,-10.48 3.99,-15.73 2.15,-0.05 4.31,-0.08 6.48,-0.1 -1.31,5.47 -2.69,10.92 -4.11,16.37 l -0.01,0.04 c -0.59,1.18 -0.23,3.4 -1.96,3.62 -4.76,0.58 -9.58,0.36 -14.35,0.06 1.35,-6.72 3.23,-13.33 4.86,-19.99 z"
       id="path28" />
    <path
       style="fill:#fe0403"
       inkscape:connector-curvature="0"
       d="m 228.89,-55.22 c 4.91,0.36 10.17,-1.15 14.79,0.97 -0.29,3.45 -0.83,8.18 -4.94,9.05 0.98,0.56 1.91,1.2 2.81,1.89 -1.28,2.79 -0.71,7.5 -4.57,8.15 -4.29,0.73 -8.7,0.19 -13.04,0.4 1.37,-6.88 3.39,-13.62 4.95,-20.46 z"
       id="path30" />
    <path
       style="fill:#ff0402"
       inkscape:connector-curvature="0"
       d="m 243.83,-45.02 c 0.96,-3.57 0.76,-8.95 5,-10.25 3.33,-0.29 6.68,-0.11 10.03,-0.15 -0.41,1.58 -0.88,3.14 -1.46,4.67 -1.98,-0.09 -3.97,-0.1 -5.95,-0.03 -0.09,0.7 -0.27,2.12 -0.36,2.83 1.7,0.37 5.62,-0.93 5.28,1.94 -0.83,3.38 -0.77,7.56 -3.24,10.2 -3.76,1.31 -7.95,0.56 -11.87,0.68 0.37,-1.5 0.74,-3 1.13,-4.5 2,0.01 4.01,0 6.02,-0.01 0.24,-1 0.48,-1.99 0.72,-2.97 -1.82,-0.19 -5.79,0.55 -5.3,-2.41 z"
       id="path32" />
    <path
       style="fill:#feffff"
       inkscape:connector-curvature="0"
       d="m 234.44,-50.94 c 0.55,0.1 1.65,0.28 2.2,0.37 -0.17,0.95 -0.33,1.9 -0.49,2.85 -0.89,0.14 -1.77,0.28 -2.66,0.42 0.31,-1.21 0.63,-2.43 0.95,-3.64 z"
       id="path34" />
    <path
       style="fill:#feffff"
       inkscape:connector-curvature="0"
       d="m 232.45,-42.95 c 0.57,0.1 1.7,0.29 2.27,0.39 -0.27,1.1 -0.54,2.2 -0.82,3.3 -0.61,-0.01 -1.83,-0.02 -2.45,-0.03 0.33,-1.22 0.66,-2.44 1,-3.66 z"
       id="path36" />
    <path
       style="fill:#ffffff"
       inkscape:connector-curvature="0"
       d="m 167.15,-35.12 c 6.84,-0.04 13.68,-0.07 20.52,-0.09 -6.17,19.16 -13.26,38 -19.52,57.14 -1.24,4.05 -3.08,7.99 -3.34,12.28 1.93,0.41 4.16,0.86 5.85,-0.5 3.08,-2.39 3.98,-6.4 5.2,-9.89 6.34,-19.84 13.71,-39.32 20.2,-59.11 6.85,-0.07 13.72,-0.13 20.58,-0.19 -6.96,20.92 -14.72,41.56 -21.32,62.59 -1.94,5.43 -3.18,11.16 -5.82,16.31 -2.54,4.46 -7.85,5.8 -12.53,6.67 -11.36,2.27 -22.67,4.76 -34.01,7.13 -1.93,0.28 -4.66,0.88 -5.87,-1.16 -0.35,-1.69 0.21,-3.36 0.72,-4.94 3.24,-9.24 6.24,-18.56 9.38,-27.83 6.45,-19.54 13.63,-38.83 19.96,-58.41 z"
       id="path38" />
    <path
       style="fill:#ffffff"
       inkscape:connector-curvature="0"
       d="m 442.88,-19.9 c 7.95,-0.75 15.94,-0.89 23.91,-1.36 -1.29,3.08 -2.56,6.18 -3.77,9.29 -5.18,0.23 -10.35,0.53 -15.53,0.7 -0.94,2.39 -1.81,4.81 -2.65,7.24 5.16,-0.2 10.32,-0.45 15.49,-0.65 -0.97,3.16 -1.98,6.32 -2.88,9.51 -5.11,0.36 -10.23,0.28 -15.33,0.67 -1.15,1.97 -1.35,4.4 -2.04,6.57 5.13,-0.13 10.26,-0.32 15.4,-0.48 -0.75,3.1 -1.45,6.21 -2.05,9.34 -7.12,0.31 -14.25,0.46 -21.37,0.64 -2.56,-0.02 -5.62,-0.19 -7.33,-2.38 -1.69,-2.1 -0.78,-4.94 -0.22,-7.29 2.3,-8.28 4.62,-16.6 8.03,-24.5 1.74,-4.15 5.91,-6.91 10.34,-7.3 z"
       id="path40" />
    <path
       style="fill:#ffffff"
       inkscape:connector-curvature="0"
       d="m 401.5,-18.24 c 10.51,-0.38 21.02,-0.89 31.52,-1.35 -1.22,3.06 -2.46,6.12 -3.67,9.19 -2.7,0.15 -5.39,0.28 -8.08,0.41 -3.95,10.61 -7.23,21.47 -9.67,32.53 -5.31,0.32 -10.61,0.62 -15.91,0.92 2.62,-11.1 5.9,-22.02 9.86,-32.71 -2.59,0.12 -5.18,0.24 -7.77,0.34 1.2,-3.13 2.39,-6.25 3.72,-9.33 z"
       id="path42" />
    <path
       style="fill:#ffffff"
       inkscape:connector-curvature="0"
       d="m 359.49,-11.55 c 1.53,-3.67 5.72,-5.34 9.47,-5.41 7.69,-0.27 15.39,-0.61 23.08,-0.84 2.05,-0.12 4.77,0.41 5.38,2.72 -0.53,3.52 -2.22,6.73 -3.33,10.09 -3.61,9.5 -6.28,19.33 -8.73,29.18 -5.34,0.44 -10.69,0.85 -16.03,1.26 0.83,-3.12 1.68,-6.23 2.51,-9.35 -2.11,0.16 -4.21,0.31 -6.31,0.47 -0.87,3.14 -1.71,6.28 -2.57,9.43 -5.37,0.51 -10.73,1.01 -16.09,1.49 3.51,-13.23 7.51,-26.34 12.62,-39.04 z"
       id="path44" />
    <path
       style="fill:#ffffff"
       inkscape:connector-curvature="0"
       d="m 332.2,-9.99 c 1.86,-2.65 4.25,-5.44 7.68,-5.87 3.36,-0.34 6.75,-0.42 10.13,-0.35 1.79,-0.1 3.82,1.16 3.6,3.18 -0.25,3.19 -1.74,6.1 -2.74,9.1 -3.97,10.46 -7.07,21.22 -9.98,32.02 -5.41,0.6 -10.81,1.16 -16.22,1.73 2.6,-8.98 5.2,-17.97 8.33,-26.78 0.92,-2.7 2.24,-5.34 2.26,-8.26 -2.31,-0.61 -5.25,-0.16 -6.25,2.3 -4.18,10.95 -7.32,22.25 -10.68,33.47 -5.4,0.62 -10.79,1.3 -16.19,1.89 3.32,-11.04 6.59,-22.11 10.5,-32.96 0.32,-1.14 1.13,-3.35 -0.68,-3.63 -2.44,-0.66 -4.96,1.01 -5.64,3.36 -4.12,11.21 -7.42,22.69 -10.93,34.1 -5.48,0.72 -10.96,1.44 -16.44,2.13 3.38,-10.76 6.52,-21.6 10.34,-32.21 2.01,-5.86 4.79,-11.62 4.79,-17.96 5.29,-0.1 10.58,-0.28 15.87,-0.37 -0.08,2.44 -0.52,4.84 -1.32,7.14 2.86,-3.09 5.62,-7.52 10.38,-7.41 3.64,-0.11 7.31,-0.36 10.96,-0.08 2.75,0.32 2.11,3.49 2.23,5.46 z"
       id="path46" />
    <path
       style="fill:#ffffff"
       inkscape:connector-curvature="0"
       d="m 240.48,-13.59 c 10.45,-0.2 20.91,-0.4 31.36,-0.59 -1.37,3.9 -2.72,7.79 -4.1,11.68 -2.67,0.13 -5.34,0.27 -8,0.39 -5.27,13.94 -9.59,28.2 -14.2,42.37 -5.48,0.86 -10.96,1.75 -16.44,2.61 4.83,-14.75 9.53,-29.55 14.82,-44.14 -2.6,0.12 -5.2,0.25 -7.79,0.38 1.52,-4.21 2.96,-8.45 4.35,-12.7 z"
       id="path48" />
    <path
       style="fill:#ffffff"
       inkscape:connector-curvature="0"
       d="m 274.18,-14.23 c 5.24,-0.13 10.49,-0.24 15.74,-0.39 -6.23,16.78 -11.88,33.76 -17.07,50.89 -5.48,0.79 -10.97,1.56 -16.45,2.34 5.45,-17.77 11.4,-35.38 17.78,-52.84 z"
       id="path50" />
    <path
       style="fill:#ffffff"
       inkscape:connector-curvature="0"
       d="m 207.85,10.07 c 2.65,-7.64 5.95,-15.16 6.79,-23.28 6.16,-0.1 12.31,-0.16 18.47,-0.26 -1.68,2.67 -3.29,5.41 -4.37,8.38 -4.49,12.23 -8.85,24.52 -12.65,36.98 3.99,-0.27 7.84,-1.43 11.55,-2.88 -2.5,5.1 -4.95,10.24 -7.48,15.33 -8.47,1.55 -16.95,3.01 -25.42,4.6 4.5,-12.91 8.51,-25.99 13.11,-38.87 z"
       id="path52" />
    <path
       style="fill:#030303"
       inkscape:connector-curvature="0"
       d="m 372.96,-6.05 c 1.08,-2.27 3.91,-2.41 6.05,-1.84 -0.64,5.16 -3.22,9.82 -4.47,14.84 -2.12,0.17 -4.24,0.32 -6.35,0.46 1.48,-4.52 2.84,-9.11 4.77,-13.46 z"
       id="path54" />
    <path
       style="fill:#ffffff"
       inkscape:connector-curvature="0"
       d="m 231.13,5.03 c 1.53,-0.07 3.07,-0.14 4.6,-0.21 -2.53,7.23 -5,14.48 -7.29,21.79 -1.12,-1.24 -2.29,-2.45 -3.81,-3.19 2.24,-6.11 4.18,-12.32 6.5,-18.39 z"
       id="path58" />
    <path
       style="fill:#ffffff"
       inkscape:connector-curvature="0"
       d="m 417.83,23.42 c -1.02,-0.76 -0.63,-3.35 0.91,-2.94 1.19,0.67 1.67,1.62 1.44,2.86 -0.59,0.02 -1.76,0.06 -2.35,0.08 z"
       id="path60" />
    <path
       style="fill:#ff0c0b"
       inkscape:connector-curvature="0"
       d="m 417.83,23.42 c 0.59,-0.02 1.76,-0.06 2.35,-0.08 2.1,0.73 3.46,3.05 5.82,3.18 7.33,0.68 14.7,0.03 22.05,0.15 1.04,-0.17 1.65,0.29 1.82,1.38 -6.4,0.35 -12.82,0.12 -19.22,0.68 -4.76,-0.44 -9.58,-1.92 -14.36,-1.19 0.16,-1.37 0.31,-2.73 0.47,-4.09 l 1.07,-0.03 z"
       id="path62" />
    <path
       style="fill:#feffff"
       inkscape:connector-curvature="0"
       d="m 416.29,27.54 c 4.78,-0.73 9.6,0.75 14.36,1.19 6.78,1.63 14.68,2.56 19.54,8.09 2.29,2.22 0.45,5.23 -1.75,6.63 -6.48,4.45 -14.27,6.38 -21.75,8.44 -20.85,5.09 -42.23,7.99 -63.67,8.93 -6.55,0.47 -13.2,0.81 -19.71,-0.31 5.56,0.11 11.1,-0.39 16.64,-0.87 18.68,-1.78 37.37,-4.06 55.67,-8.31 6.79,-1.71 13.74,-3.42 19.84,-6.97 2.34,-1.3 4.7,-3.85 3.68,-6.73 -1.17,-2.45 -3.9,-3.53 -6.26,-4.5 -5.35,-1.89 -10.94,-3.1 -16.57,-3.75 -2.97,-0.34 -6.01,-0.13 -8.91,-0.95 2.98,0.01 6.01,0.03 8.89,-0.89 z"
       id="path64" />
    <path
       style="fill:#ff0302"
       inkscape:connector-curvature="0"
       d="m 430.65,28.73 c 6.4,-0.56 12.82,-0.33 19.22,-0.68 2.48,-0.2 4.24,1.89 6.14,3.13 3.65,2.99 7.6,6.77 7.84,11.79 0.48,5.02 -2.91,9.3 -6.37,12.51 -5.93,5.24 -13.26,8.54 -20.53,11.47 -12.19,4.63 -25,7.46 -37.77,9.79 -25.17,3.55 -50.79,4.88 -76.19,2.84 -18.07,-1.78 -36.37,-4.27 -53.28,-11.25 -6.79,-2.98 -13.9,-6.63 -17.97,-13.1 -1.98,-2.81 -1.55,-6.37 -1.3,-9.59 1.42,-0.62 2.88,-1.12 4.45,-1.08 -0.45,1.8 -1.01,3.6 -1.16,5.46 0.37,4.1 3.61,7.17 6.74,9.49 6.28,4.41 13.59,7.06 20.88,9.32 18.7,5.53 38.19,7.91 57.62,8.97 11.2,-0.06 22.65,1.06 33.59,-2 -6.83,-0.14 -13.67,-0.12 -20.49,-0.52 -15.04,-1.11 -30.28,-2.05 -44.81,-6.38 -5.7,-1.83 -11.68,-3.81 -16.09,-8.05 -2.8,-2.64 -3.4,-7.41 -0.92,-10.45 2.92,-3.68 7.28,-5.83 11.54,-7.56 11.54,-4.62 23.91,-6.61 36.17,-8.2 23.6,-2.3 47.48,-1.9 70.99,1.16 5,0.49 9.89,1.89 14.95,1.8 -7.76,-1.7 -15.55,-3.3 -23.46,-4.12 -5.37,-3.06 -11.64,-1.42 -17.47,-2.02 -0.53,-0.4 -1.58,-1.21 -2.11,-1.62 11.8,-0.59 23.63,-0.82 35.45,-0.46 5.63,0.65 11.22,1.86 16.57,3.75 2.36,0.97 5.09,2.05 6.26,4.5 1.02,2.88 -1.34,5.43 -3.68,6.73 -6.1,3.55 -13.05,5.26 -19.84,6.97 -18.3,4.25 -36.99,6.53 -55.67,8.31 -5.54,0.48 -11.08,0.98 -16.64,0.87 6.51,1.12 13.16,0.78 19.71,0.31 21.44,-0.94 42.82,-3.84 63.67,-8.93 7.48,-2.06 15.27,-3.99 21.75,-8.44 2.2,-1.4 4.04,-4.41 1.75,-6.63 -4.86,-5.53 -12.76,-6.46 -19.54,-8.09 z"
       id="path66" />
    <path
       style="fill:#b81b1b"
       inkscape:connector-curvature="0"
       d="m 361.71,31.99 c 6.28,-0.79 12.55,-1.82 18.87,-2.37 l 0.28,0.22 c 0.53,0.41 1.58,1.22 2.11,1.62 5.83,0.6 12.1,-1.04 17.47,2.02 -12.87,-1.14 -25.81,-1.92 -38.73,-1.49 z"
       id="path68" />
    <path
       style="fill:#feffff"
       inkscape:connector-curvature="0"
       d="m 305.19,38.08 c 18.74,-2.73 37.62,-4.74 56.52,-6.09 12.92,-0.43 25.86,0.35 38.73,1.49 7.91,0.82 15.7,2.42 23.46,4.12 -5.06,0.09 -9.95,-1.31 -14.95,-1.8 -23.51,-3.06 -47.39,-3.46 -70.99,-1.16 -12.26,1.59 -24.63,3.58 -36.17,8.2 -4.26,1.73 -8.62,3.88 -11.54,7.56 -2.48,3.04 -1.88,7.81 0.92,10.45 4.41,4.24 10.39,6.22 16.09,8.05 14.53,4.33 29.77,5.27 44.81,6.38 6.82,0.4 13.66,0.38 20.49,0.52 -10.94,3.06 -22.39,1.94 -33.59,2 -19.43,-1.06 -38.92,-3.44 -57.62,-8.97 -7.29,-2.26 -14.6,-4.91 -20.88,-9.32 -3.13,-2.32 -6.37,-5.39 -6.74,-9.49 0.15,-1.86 0.71,-3.66 1.16,-5.46 4.38,-0.55 8.72,-1.37 13.11,-1.79 -1.75,3.86 -1.65,8.77 1.27,12.04 3.78,4.57 9.56,6.49 14.68,9.11 -2.57,-1.91 -5.33,-4.48 -5.32,-7.92 0.64,-4.87 4.5,-8.49 8.49,-10.93 5.59,-3.29 11.79,-5.45 18.07,-6.99 z"
       id="path70" />
    <path
       style="fill:#ff0401"
       inkscape:connector-curvature="0"
       d="m 268,42.77 c 12.2,-1.69 24.76,-3.78 37.19,-4.69 -6.28,1.54 -12.48,3.7 -18.07,6.99 -3.99,2.44 -7.85,6.06 -8.49,10.93 -0.01,3.44 2.75,6.01 5.32,7.92 -5.12,-2.62 -10.9,-4.54 -14.68,-9.11 -2.92,-3.27 -3.02,-8.18 -1.27,-12.04 z"
       id="path72" />
  </g>
</svg>
